<svg width="48" height="48" viewBox="0 0 48 48" fill="none" xmlns="http://www.w3.org/2000/svg">
  <defs>
    <linearGradient id="paint0_linear" x1="8" y1="8" x2="40" y2="40" gradientUnits="userSpaceOnUse">
      <stop stop-color="#6366F1" stop-opacity="0.7"/>
      <stop offset="1" stop-color="#4F46E5" stop-opacity="0.4"/>
    </linearGradient>
    <filter id="filter0_b" x="-4" y="-4" width="56" height="56" filterUnits="userSpaceOnUse" color-interpolation-filters="sRGB">
      <feFlood flood-opacity="0" result="BackgroundImageFix"/>
      <feGaussianBlur in="BackgroundImageFix" stdDeviation="4"/>
      <feComposite in2="SourceAlpha" operator="in" result="effect1_backgroundBlur"/>
      <feBlend mode="normal" in="SourceGraphic" in2="effect1_backgroundBlur" result="shape"/>
    </filter>
    <filter id="glow" x="-8" y="-8" width="64" height="64" filterUnits="userSpaceOnUse">
      <feGaussianBlur stdDeviation="2" result="blur"/>
      <feFlood flood-color="#6366F1" flood-opacity="0.3"/>
      <feComposite in2="blur" operator="in"/>
      <feComposite in="SourceGraphic"/>
    </filter>
  </defs>
  <g filter="url(#filter0_b)">
    <rect x="4" y="4" width="40" height="40" rx="12" fill="url(#paint0_linear)" fill-opacity="0.15"/>
    <rect x="4.5" y="4.5" width="39" height="39" rx="11.5" stroke="white" stroke-opacity="0.2"/>
  </g>
  <g filter="url(#glow)">
    <path d="M16 24C16 22.8954 16.8954 22 18 22H30C31.1046 22 32 22.8954 32 24V32C32 33.1046 31.1046 34 30 34H18C16.8954 34 16 33.1046 16 32V24Z" fill="white" fill-opacity="0.1"/>
    <path d="M16 16C16 14.8954 16.8954 14 18 14H30C31.1046 14 32 14.8954 32 16V19C32 20.1046 31.1046 21 30 21H18C16.8954 21 16 20.1046 16 19V16Z" fill="white" fill-opacity="0.15"/>
    <path d="M28 18H20M28 28H20" stroke="white" stroke-opacity="0.8" stroke-width="1.5" stroke-linecap="round"/>
    <path d="M16.5 24C16.5 23.1716 17.1716 22.5 18 22.5H30C30.8284 22.5 31.5 23.1716 31.5 24V32C31.5 32.8284 30.8284 33.5 30 33.5H18C17.1716 33.5 16.5 32.8284 16.5 32V24Z" stroke="white" stroke-opacity="0.5"/>
    <path d="M16.5 16C16.5 15.1716 17.1716 14.5 18 14.5H30C30.8284 14.5 31.5 15.1716 31.5 16V19C31.5 19.8284 30.8284 20.5 30 20.5H18C17.1716 20.5 16.5 19.8284 16.5 19V16Z" stroke="white" stroke-opacity="0.5"/>
  </g>
</svg> 